# xmcd
#
# Track frame offsets: 
#        150
#        14638
#        29584
#        46758
#        60043
#        86368
#        104215
#        118240
#
# Disc length: 1791 seconds
#
# Revision: 0
# Processed by: cddbd v1.5.2PL0 Copyright (c) Steve Scherf et al.
# Submitted via: ExactAudioCopy v0.95b4
#
DISCID=6406fd08
DTITLE=Netzer and Scheytt - Das Duo
DYEAR=1900
DGENRE=Blues
TTITLE0=Let The Good Times Roll
TTITLE1=Send Me Someone To Love
TTITLE2=Born With The Blues
TTITLE3=Ticino Boogie
TTITLE4=Rock Me Baby
TTITLE5=Elmore's Grave
TTITLE6=Long Tall Mama
TTITLE7=Will The Circle Be Unbroken
EXTD=
EXTT0=
EXTT1=
EXTT2=
EXTT3=
EXTT4=
EXTT5=
EXTT6=
EXTT7=
PLAYORDER=
